PathFileType	4	(X/Y/Z)	/Users/mathieubourgeois/Desktop/Analyse/Traitement/Sujet_06/Data/Transformed_Sujet_06_velo100.trc
DataRate	CameraRate	NumFrames	NumMarkers	Units	OrigDataRate	OrigDataStartFrame	OrigNumFrames
120.000000	120.000000	4	36	mm	120.000000	932	1864
Frame#	Time	RFHD			RANE			STRN			LANI			LKNE			T10			RHUM			RWRB			C7			LFWT			LTOE			RTOE			LWRA			LBWT			RBWT			RFWT			LKNI			RKNI			RKNE			LANE			RANI			LHEE			RHEE			LHUM			LRAD			RRAD			RWRA			LWRB			LFHD			LBHD			RBHD			RSHO			LSHO			CLAV			LCAR			RCAR			
		X1	Y1	Z1	X2	Y2	Z2	X3	Y3	Z3	X4	Y4	Z4	X5	Y5	Z5	X6	Y6	Z6	X7	Y7	Z7	X8	Y8	Z8	X9	Y9	Z9	X10	Y10	Z10	X11	Y11	Z11	X12	Y12	Z12	X13	Y13	Z13	X14	Y14	Z14	X15	Y15	Z15	X16	Y16	Z16	X17	Y17	Z17	X18	Y18	Z18	X19	Y19	Z19	X20	Y20	Z20	X21	Y21	Z21	X22	Y22	Z22	X23	Y23	Z23	X24	Y24	Z24	X25	Y25	Z25	X26	Y26	Z26	X27	Y27	Z27	X28	Y28	Z28	X29	Y29	Z29	X30	Y30	Z30	X31	Y31	Z31	X32	Y32	Z32	X33	Y33	Z33	X34	Y34	Z34	X35	Y35	Z35	X36	Y36	Z36	

933	7.766666666666667	285.1482849121094	1360.098999023438	83.62477111816401	-168.9002685546875	323.7342224121094	199.5576019287109	-18.12044334411621	1191.295532226562	38.30565261840813	67.2857666015625	526.6598510742188	-46.01391983032229	146.0802917480469	904.3720703125	-127.5429306030274	-181.1437377929688	1346.707763671875	45.77668762207021	191.6318359375	1126.006103515625	250.998794555664	389.5511169433594	1023.834716796875	179.2875518798828	59.85399627685546	1449.622436523438	37.77037429809562	-163.5977783203125	1108.534790039062	-62.1066436767579	204.3878326416016	436.7204895019531	-130.5331573486328	-52.73435592651369	173.8142700195312	182.0143737792969	402.7815551757812	1025.899780273438	-131.9265747070312	-327.2855224609375	1143.959228515625	-9.009822845459095	-323.4607543945312	1141.16943359375	100.5136871337889	-167.8372192382813	1104.89599609375	151.3470153808593	173.6389617919922	863.6569213867188	-33.02361679077151	22.13968276977538	640.5457153320312	109.4840393066406	7.056908607482885	688.2321166992188	204.0707855224609	33.23146057128908	527.3626708984375	-123.3228530883789	-140.5454254150391	320.158447265625	123.1710968017578	-17.76176834106444	519.8290405273438	-77.88964843750003	-223.5105285644532	339.9542541503906	155.6622009277343	177.7701263427735	1098.919555664062	-212.5310363769532	212.8094482421875	1143.441162109375	-248.4072418212891	236.0366973876953	1161.508544921875	293.7414245605469	431.8096923828125	1038.354858398438	228.9201812744141	429.3033142089844	1026.050048828125	-190.0601196289062	275.3454284667969	1365.739624023438	-59.88254547119146	200.6730041503906	1495.717529296875	-48.1451606750489	212.6696624755859	1509.052612304688	78.91205596923821	83.73712158203124	1417.682983398438	166.9281005859374	70.71788787841798	1404.5341796875	-109.0849685668946	72.42581176757812	1311.394165039062	33.64192199707024	479.9492797851562	1048.515625	-109.797981262207	491.1533813476562	1042.776000976562	143.1184997558594	
934	7.774999999999999	284.486083984375	1359.710571289062	84.28887939453119	-174.9400329589844	337.3288269042969	200.1207885742187	-18.26890182495118	1190.810791015625	38.77735519409173	74.58939361572266	513.055419921875	-46.55144119262697	143.5244293212891	894.6461791992188	-126.8129043579102	-181.7244262695312	1346.464599609375	46.03616333007802	191.3837280273437	1125.823120117188	251.100357055664	389.4317932128906	1023.824584960938	179.5119171142578	59.20283508300781	1449.388916015625	38.35787582397453	-164.3060760498047	1108.1708984375	-62.14042663574228	215.1129760742188	425.9618225097656	-129.9501953125	-63.85058593750002	183.6487579345703	182.2504577636719	402.6700744628906	1026.019287109375	-131.5802764892578	-327.98193359375	1143.436157226562	-9.017960548400989	-324.1246948242188	1140.815673828125	100.4710311889647	-168.3729553222657	1104.604614257812	151.3197631835937	171.1952362060547	853.3516845703125	-31.66717720031741	27.2869186401367	646.2250366210938	108.2038269042968	13.95844268798826	694.2037353515625	202.7875518798828	41.30051040649415	512.8812255859375	-124.0405349731446	-147.0400695800782	332.8600769042969	123.5631027221679	-9.72497844696044	503.8439331054688	-78.96936035156253	-229.0255279541016	355.5317993164062	156.442398071289	177.723373413086	1099.004028320312	-211.9270782470703	212.7284545898438	1143.621948242188	-247.8384857177735	235.707275390625	1161.34521484375	293.9286193847656	431.6829223632812	1038.352294921875	229.1534423828125	429.0849304199219	1026.456298828125	-189.6670379638672	274.8224487304688	1365.534790039062	-59.20665359497075	200.1919097900391	1495.517944335938	-47.42879486083991	212.0274047851562	1508.734130859375	79.69093322753899	83.02797698974608	1417.37841796875	167.3808593749999	70.21813201904298	1404.4501953125	-108.5347595214844	71.84125518798828	1311.045166015625	34.17973709106438	479.9279479980469	1048.578125	-109.450927734375	491.0378723144531	1042.804077148438	143.3737182617188	
935	7.783333333333333	283.7906799316406	1359.426879882812	85.11328887939447	-179.8567810058594	351.6824645996094	200.5305175781249	-18.89019584655762	1190.455932617188	39.28657150268548	83.33087158203125	497.5953979492188	-46.76292419433596	140.3421783447266	883.6257934570312	-126.5610275268555	-182.3576812744141	1346.192016601562	46.41741561889638	191.1398468017578	1125.590209960938	251.2362060546875	389.3244018554688	1023.835754394531	179.65234375	58.52329635620116	1449.144775390625	38.93359374999992	-164.9970703125	1107.796875	-62.19155883789072	223.8527374267578	414.5833740234375	-130.3213958740234	-73.66069793701175	194.1061553955078	182.6009063720703	402.5973815917969	1025.998779296875	-131.3242645263672	-328.5845031738281	1142.89453125	-8.946619033813587	-324.7715454101562	1140.404907226562	100.5079040527343	-168.7494354248047	1104.243041992188	151.2365112304687	148.6236114501953	837.3031005859375	-18.84479904174808	32.73637008666991	652.4711303710938	107.0892868041992	21.20538711547849	700.6009521484375	201.5970153808593	48.32212448120119	497.5783996582031	-124.5870056152344	-152.41943359375	346.3254699707031	123.8369369506836	-2.506803989410391	487.422607421875	-79.63362884521487	-233.5582733154297	371.54541015625	157.0624999999999	177.5811157226563	1099.056396484375	-211.2940979003907	212.5279541015625	1143.755493164062	-247.1961669921875	235.4460906982422	1161.134033203125	294.05859375	431.5560607910156	1038.341918945312	229.2900390625	429.1568908691406	1026.396118164062	-189.4266662597656	274.3451232910156	1365.391967773438	-58.36428451538091	199.6700286865234	1495.375854492188	-46.61418533325202	211.3430328369141	1508.435668945312	80.53916931152338	82.39251708984374	1417.053466796875	167.9424743652343	69.63616943359376	1404.339721679688	-107.9176788330079	71.23367309570312	1310.703002929688	34.62108993530266	479.8840026855469	1048.649536132812	-109.1819534301758	490.9139099121094	1042.8505859375	143.5290985107422	
936	7.791666666666667	283.1197509765625	1359.214477539062	86.02912139892572	-183.6283874511719	366.5572204589844	200.7808074951171	-19.97911262512207	1190.435180664062	39.62642288208001	88.84713745117188	483.2179565429688	-47.13202285766603	136.698959350586	871.4065551757812	-126.4071884155274	-182.9405517578125	1345.877685546875	46.85249710082997	190.9119567871093	1125.34423828125	251.3910980224609	389.2350769042969	1023.7109375	179.7229309082031	57.90504455566406	1448.863037109375	39.63188552856437	-165.6934661865234	1107.438232421875	-62.33598327636728	231.2348022460938	402.3681335449219	-130.6319885253906	-82.52594757080081	205.7579345703125	182.8701782226562	402.5501708984375	1025.994873046875	-131.1614685058594	-329.1567687988281	1142.315673828125	-8.808111190796009	-325.2733154296875	1139.978637695312	100.6613693237304	-169.0299530029297	1103.814453125	151.1166381835937	139.1646575927734	822.6549072265625	-17.12763023376468	39.06192016601561	659.3516845703125	105.910041809082	28.64580154418943	707.4150390625	200.5946044921874	54.31761550903322	481.6159973144531	-124.8834838867188	-156.701416015625	360.4154968261719	123.9712905883789	3.652936935424814	470.4819641113281	-80.04869079589847	-236.8633270263672	387.9782409667969	157.4814758300781	177.3784332275391	1099.116088867188	-210.6719055175782	212.2797546386719	1143.874877929688	-246.6427459716797	235.1581573486328	1160.884887695312	294.213134765625	431.4022216796875	1038.33935546875	229.3334197998047	428.9967041015625	1026.50537109375	-189.2799530029297	273.9476928710938	1365.312255859375	-57.48717117309575	199.1824493408203	1495.219116210938	-45.70367813110359	210.6173858642578	1508.197509765625	81.46440887451166	81.6970977783203	1416.71240234375	168.5579223632812	69.15232849121095	1404.262084960938	-107.3144302368165	70.6402587890625	1310.265747070312	35.26567459106438	479.8063659667969	1048.713256835938	-109.0898056030274	490.7676696777344	1042.927612304688	143.5458068847656	
